<svg width="161" height="24" viewBox="0 0 161 24" fill="none" xmlns="http://www.w3.org/2000/svg">
<path d="M5.35837 20.775C5.32411 20.9217 5.32349 21.0742 5.35657 21.2212C5.38964 21.3681 5.45555 21.5057 5.54935 21.6235C5.64315 21.7414 5.76241 21.8365 5.89819 21.9017C6.03397 21.9669 6.18275 22.0005 6.33337 22C6.5309 22.0001 6.72402 21.9416 6.88837 21.832L12.3334 18.202L17.7784 21.832C17.9487 21.9451 18.1496 22.0033 18.354 21.9988C18.5584 21.9944 18.7565 21.9274 18.9218 21.8069C19.087 21.6865 19.2113 21.5183 19.2781 21.3251C19.3449 21.1318 19.3509 20.9228 19.2954 20.726L17.4664 14.326L22.0024 10.244C22.1476 10.1132 22.2514 9.94268 22.3008 9.75353C22.3502 9.56437 22.343 9.3649 22.2803 9.17976C22.2175 8.99462 22.1018 8.83194 21.9476 8.71184C21.7933 8.59174 21.6073 8.51949 21.4124 8.50401L15.7114 8.05001L13.2444 2.58901C13.1658 2.41313 13.038 2.26374 12.8764 2.15887C12.7148 2.05401 12.5263 1.99815 12.3337 1.99805C12.1411 1.99794 11.9525 2.05359 11.7908 2.15828C11.6291 2.26296 11.5011 2.41221 11.4224 2.58801L8.95537 8.05001L3.25437 8.50301C3.06283 8.51819 2.87971 8.58822 2.72692 8.70475C2.57414 8.82127 2.45816 8.97934 2.39286 9.16004C2.32756 9.34075 2.31571 9.53645 2.35871 9.72372C2.40172 9.91099 2.49777 10.0819 2.63537 10.216L6.84937 14.323L5.35837 20.775ZM12.3334 5.42901L14.3754 9.95001L14.9634 9.99701H14.9644L18.9364 10.312L15.6654 13.256L15.6644 13.258L15.2014 13.674L15.3724 14.271V14.274L16.6254 18.659L12.3334 15.798V5.42901Z" fill="#515151"/>
<path d="M55.617 8.27578L49.6662 7.41093L47.006 2.01797C46.9334 1.87031 46.8138 1.75078 46.6662 1.67812C46.2959 1.49531 45.8459 1.64765 45.6607 2.01797L43.0006 7.41093L37.0498 8.27578C36.8857 8.29922 36.7357 8.37656 36.6209 8.49375C36.482 8.63645 36.4055 8.82843 36.4082 9.02752C36.4108 9.2266 36.4924 9.41649 36.6349 9.55547L40.9404 13.7531L39.9232 19.6805C39.8994 19.8183 39.9146 19.9602 39.9673 20.0898C40.0199 20.2195 40.1078 20.3318 40.221 20.414C40.3343 20.4962 40.4682 20.5451 40.6078 20.555C40.7474 20.565 40.887 20.5356 41.0107 20.4703L46.3334 17.6719L51.656 20.4703C51.8013 20.5477 51.9701 20.5734 52.1318 20.5453C52.5396 20.475 52.8138 20.0883 52.7435 19.6805L51.7263 13.7531L56.0318 9.55547C56.149 9.44062 56.2263 9.29062 56.2498 9.12656C56.3131 8.7164 56.0271 8.33672 55.617 8.27578ZM49.9146 13.1625L50.7607 18.0914L46.3334 15.7664L41.906 18.0937L42.7521 13.1648L39.1709 9.67265L44.1209 8.95312L46.3334 4.46953L48.5459 8.95312L53.4959 9.67265L49.9146 13.1625Z" fill="#515151"/>
<path d="M89.617 8.27578L83.6662 7.41093L81.006 2.01797C80.9334 1.87031 80.8139 1.75078 80.6662 1.67812C80.2959 1.49531 79.8459 1.64765 79.6607 2.01797L77.0006 7.41093L71.0498 8.27578C70.8857 8.29922 70.7357 8.37656 70.6209 8.49375C70.482 8.63645 70.4055 8.82843 70.4082 9.02752C70.4108 9.2266 70.4924 9.41649 70.6349 9.55547L74.9404 13.7531L73.9232 19.6805C73.8994 19.8183 73.9146 19.9602 73.9673 20.0898C74.0199 20.2195 74.1078 20.3318 74.221 20.414C74.3343 20.4962 74.4683 20.5451 74.6078 20.555C74.7474 20.565 74.887 20.5356 75.0107 20.4703L80.3334 17.6719L85.656 20.4703C85.8014 20.5477 85.9701 20.5734 86.1318 20.5453C86.5396 20.475 86.8139 20.0883 86.7435 19.6805L85.7264 13.7531L90.0318 9.55547C90.149 9.44062 90.2264 9.29062 90.2498 9.12656C90.3131 8.7164 90.0271 8.33672 89.617 8.27578ZM83.9146 13.1625L84.7607 18.0914L80.3334 15.7664L75.906 18.0937L76.7521 13.1648L73.1709 9.67265L78.1209 8.95312L80.3334 4.46953L82.5459 8.95312L87.4959 9.67265L83.9146 13.1625Z" fill="#515151"/>
<path d="M123.617 8.27578L117.666 7.41093L115.006 2.01797C114.933 1.87031 114.814 1.75078 114.666 1.67812C114.296 1.49531 113.846 1.64765 113.661 2.01797L111.001 7.41093L105.05 8.27578C104.886 8.29922 104.736 8.37656 104.621 8.49375C104.482 8.63645 104.406 8.82843 104.408 9.02752C104.411 9.2266 104.492 9.41649 104.635 9.55547L108.94 13.7531L107.923 19.6805C107.899 19.8183 107.915 19.9602 107.967 20.0898C108.02 20.2195 108.108 20.3318 108.221 20.414C108.334 20.4962 108.468 20.5451 108.608 20.555C108.747 20.565 108.887 20.5356 109.011 20.4703L114.333 17.6719L119.656 20.4703C119.801 20.5477 119.97 20.5734 120.132 20.5453C120.54 20.475 120.814 20.0883 120.744 19.6805L119.726 13.7531L124.032 9.55547C124.149 9.44062 124.226 9.29062 124.25 9.12656C124.313 8.7164 124.027 8.33672 123.617 8.27578ZM117.915 13.1625L118.761 18.0914L114.333 15.7664L109.906 18.0937L110.752 13.1648L107.171 9.67265L112.121 8.95312L114.333 4.46953L116.546 8.95312L121.496 9.67265L117.915 13.1625Z" fill="#515151"/>
<path d="M157.617 8.27578L151.666 7.41093L149.006 2.01797C148.933 1.87031 148.814 1.75078 148.666 1.67812C148.296 1.49531 147.846 1.64765 147.661 2.01797L145.001 7.41093L139.05 8.27578C138.886 8.29922 138.736 8.37656 138.621 8.49375C138.482 8.63645 138.406 8.82843 138.408 9.02752C138.411 9.2266 138.492 9.41649 138.635 9.55547L142.94 13.7531L141.923 19.6805C141.899 19.8183 141.915 19.9602 141.967 20.0898C142.02 20.2195 142.108 20.3318 142.221 20.414C142.334 20.4962 142.468 20.5451 142.608 20.555C142.747 20.565 142.887 20.5356 143.011 20.4703L148.333 17.6719L153.656 20.4703C153.801 20.5477 153.97 20.5734 154.132 20.5453C154.54 20.475 154.814 20.0883 154.744 19.6805L153.726 13.7531L158.032 9.55547C158.149 9.44062 158.226 9.29062 158.25 9.12656C158.313 8.7164 158.027 8.33672 157.617 8.27578ZM151.915 13.1625L152.761 18.0914L148.333 15.7664L143.906 18.0937L144.752 13.1648L141.171 9.67265L146.121 8.95312L148.333 4.46953L150.546 8.95312L155.496 9.67265L151.915 13.1625Z" fill="#515151"/>
</svg>
