<svg width="21" height="20" viewBox="0 0 21 20" fill="none" xmlns="http://www.w3.org/2000/svg">
<path d="M19.617 7.27578L13.6662 6.41094L11.006 1.01797C10.9334 0.870313 10.8139 0.750782 10.6662 0.678125C10.2959 0.495313 9.84589 0.647657 9.66073 1.01797L7.00057 6.41094L1.04979 7.27578C0.885731 7.29922 0.735731 7.37656 0.620887 7.49375C0.482048 7.63645 0.405541 7.82844 0.408178 8.02752C0.410814 8.2266 0.492379 8.41649 0.63495 8.55547L4.94042 12.7531L3.92323 18.6805C3.89938 18.8184 3.91464 18.9602 3.96727 19.0898C4.01991 19.2195 4.10783 19.3318 4.22105 19.414C4.33427 19.4962 4.46826 19.5451 4.60784 19.5551C4.74742 19.565 4.88699 19.5356 5.01073 19.4703L10.3334 16.6719L15.656 19.4703C15.8014 19.5477 15.9701 19.5734 16.1318 19.5453C16.5396 19.475 16.8139 19.0883 16.7435 18.6805L15.7264 12.7531L20.0318 8.55547C20.149 8.44063 20.2264 8.29063 20.2498 8.12656C20.3131 7.71641 20.0271 7.33672 19.617 7.27578ZM13.9146 12.1625L14.7607 17.0914L10.3334 14.7664L5.90604 17.0938L6.75214 12.1648L3.17089 8.67266L8.12089 7.95313L10.3334 3.46953L12.5459 7.95313L17.4959 8.67266L13.9146 12.1625Z" fill="#515151"/>
</svg>
